<svg width="225" height="96" viewBox="0 0 225 96" fill="none" xmlns="http://www.w3.org/2000/svg">
<path d="M78.16 39.99H80.644V54.894H87.907V57H78.16V39.99ZM103.136 50.52C103.136 51.582 102.974 52.536 102.65 53.382C102.326 54.21 101.876 54.912 101.3 55.488C100.742 56.064 100.085 56.505 99.3295 56.811C98.5735 57.099 97.7545 57.243 96.8725 57.243C95.9905 57.243 95.1715 57.108 94.4155 56.838C93.6775 56.55 93.0295 56.136 92.4715 55.596C91.9315 55.038 91.4995 54.363 91.1755 53.571C90.8695 52.761 90.7165 51.834 90.7165 50.79C90.7165 49.728 90.8785 48.783 91.2025 47.955C91.5265 47.127 91.9675 46.434 92.5255 45.876C93.1015 45.3 93.7675 44.868 94.5235 44.58C95.2795 44.274 96.0985 44.121 96.9805 44.121C97.8625 44.121 98.6725 44.256 99.4105 44.526C100.166 44.796 100.814 45.201 101.354 45.741C101.912 46.281 102.344 46.956 102.65 47.766C102.974 48.558 103.136 49.476 103.136 50.52ZM100.652 50.655C100.652 49.809 100.544 49.089 100.328 48.495C100.112 47.901 99.8245 47.415 99.4645 47.037C99.1225 46.659 98.7265 46.389 98.2765 46.227C97.8265 46.047 97.3675 45.957 96.8995 45.957C96.4315 45.957 95.9725 46.029 95.5225 46.173C95.0725 46.317 94.6765 46.569 94.3345 46.929C93.9925 47.289 93.7135 47.775 93.4975 48.387C93.2995 48.981 93.2005 49.737 93.2005 50.655C93.2005 51.501 93.3085 52.23 93.5245 52.842C93.7405 53.436 94.0195 53.922 94.3615 54.3C94.7215 54.678 95.1265 54.957 95.5765 55.137C96.0265 55.317 96.4855 55.407 96.9535 55.407C97.4215 55.407 97.8805 55.335 98.3305 55.191C98.7805 55.029 99.1765 54.768 99.5185 54.408C99.8605 54.03 100.13 53.544 100.328 52.95C100.544 52.338 100.652 51.573 100.652 50.655ZM107.189 48.522C107.189 47.82 107.315 47.199 107.567 46.659C107.819 46.101 108.17 45.633 108.62 45.255C109.088 44.877 109.637 44.598 110.267 44.418C110.897 44.22 111.581 44.121 112.319 44.121C112.589 44.121 112.85 44.139 113.102 44.175C113.354 44.211 113.606 44.256 113.858 44.31H119.339V46.065H118.502L116.342 45.768C116.684 46.128 116.945 46.542 117.125 47.01C117.323 47.478 117.422 47.973 117.422 48.495C117.422 49.197 117.296 49.827 117.044 50.385C116.792 50.925 116.441 51.384 115.991 51.762C115.541 52.14 115.001 52.428 114.371 52.626C113.741 52.806 113.057 52.896 112.319 52.896C111.761 52.896 111.275 52.86 110.861 52.788C110.447 52.932 110.159 53.121 109.997 53.355C109.835 53.571 109.754 53.805 109.754 54.057C109.754 54.471 109.889 54.75 110.159 54.894C110.447 55.038 110.825 55.11 111.293 55.11H114.641C116.045 55.11 117.116 55.434 117.854 56.082C118.61 56.712 118.988 57.576 118.988 58.674C118.988 59.376 118.835 60.006 118.529 60.564C118.223 61.122 117.782 61.599 117.206 61.995C116.648 62.391 115.964 62.688 115.154 62.886C114.344 63.102 113.435 63.21 112.427 63.21C110.591 63.21 109.124 62.877 108.026 62.211C106.946 61.563 106.406 60.6 106.406 59.322C106.406 58.656 106.613 58.098 107.027 57.648C107.459 57.198 108.017 56.856 108.701 56.622C108.341 56.37 108.071 56.109 107.891 55.839C107.711 55.551 107.621 55.173 107.621 54.705C107.621 54.147 107.783 53.67 108.107 53.274C108.449 52.878 108.908 52.563 109.484 52.329C108.764 52.005 108.197 51.537 107.783 50.925C107.387 50.295 107.189 49.494 107.189 48.522ZM110.078 57C109.16 57.414 108.701 58.062 108.701 58.944C108.701 60.528 109.979 61.32 112.535 61.32C113.291 61.32 113.93 61.248 114.452 61.104C114.974 60.96 115.397 60.771 115.721 60.537C116.045 60.303 116.279 60.042 116.423 59.754C116.585 59.466 116.666 59.169 116.666 58.863C116.666 58.107 116.405 57.603 115.883 57.351C115.379 57.117 114.74 57 113.966 57H110.078ZM115.019 48.576C115.019 47.622 114.767 46.92 114.263 46.47C113.777 46.02 113.129 45.795 112.319 45.795C111.509 45.795 110.852 46.02 110.348 46.47C109.862 46.92 109.619 47.586 109.619 48.468C109.619 49.404 109.862 50.097 110.348 50.547C110.852 50.979 111.509 51.195 112.319 51.195C113.129 51.195 113.777 50.979 114.263 50.547C114.767 50.115 115.019 49.458 115.019 48.576ZM134.498 50.52C134.498 51.582 134.336 52.536 134.012 53.382C133.688 54.21 133.238 54.912 132.662 55.488C132.104 56.064 131.447 56.505 130.691 56.811C129.935 57.099 129.116 57.243 128.234 57.243C127.352 57.243 126.533 57.108 125.777 56.838C125.039 56.55 124.391 56.136 123.833 55.596C123.293 55.038 122.861 54.363 122.537 53.571C122.231 52.761 122.078 51.834 122.078 50.79C122.078 49.728 122.24 48.783 122.564 47.955C122.888 47.127 123.329 46.434 123.887 45.876C124.463 45.3 125.129 44.868 125.885 44.58C126.641 44.274 127.46 44.121 128.342 44.121C129.224 44.121 130.034 44.256 130.772 44.526C131.528 44.796 132.176 45.201 132.716 45.741C133.274 46.281 133.706 46.956 134.012 47.766C134.336 48.558 134.498 49.476 134.498 50.52ZM132.014 50.655C132.014 49.809 131.906 49.089 131.69 48.495C131.474 47.901 131.186 47.415 130.826 47.037C130.484 46.659 130.088 46.389 129.638 46.227C129.188 46.047 128.729 45.957 128.261 45.957C127.793 45.957 127.334 46.029 126.884 46.173C126.434 46.317 126.038 46.569 125.696 46.929C125.354 47.289 125.075 47.775 124.859 48.387C124.661 48.981 124.562 49.737 124.562 50.655C124.562 51.501 124.67 52.23 124.886 52.842C125.102 53.436 125.381 53.922 125.723 54.3C126.083 54.678 126.488 54.957 126.938 55.137C127.388 55.317 127.847 55.407 128.315 55.407C128.783 55.407 129.242 55.335 129.692 55.191C130.142 55.029 130.538 54.768 130.88 54.408C131.222 54.03 131.492 53.544 131.69 52.95C131.906 52.338 132.014 51.573 132.014 50.655ZM150.457 50.655C150.457 51.663 150.304 52.572 149.998 53.382C149.692 54.192 149.278 54.885 148.756 55.461C148.234 56.037 147.622 56.478 146.92 56.784C146.218 57.09 145.471 57.243 144.679 57.243C143.851 57.243 143.122 57.126 142.492 56.892C141.88 56.658 141.304 56.298 140.764 55.812H140.71L140.467 57H138.766V37.83H141.115V45.903C141.691 45.291 142.321 44.841 143.005 44.553C143.707 44.265 144.436 44.121 145.192 44.121C146.812 44.121 148.09 44.697 149.026 45.849C149.98 47.001 150.457 48.603 150.457 50.655ZM147.973 50.682C147.973 49.278 147.676 48.162 147.082 47.334C146.488 46.488 145.651 46.065 144.571 46.065C143.887 46.065 143.266 46.218 142.708 46.524C142.15 46.83 141.619 47.262 141.115 47.82V53.976C141.493 54.408 141.916 54.759 142.384 55.029C142.87 55.281 143.428 55.407 144.058 55.407C144.562 55.407 145.048 55.317 145.516 55.137C146.002 54.957 146.425 54.678 146.785 54.3C147.145 53.904 147.433 53.409 147.649 52.815C147.865 52.221 147.973 51.51 147.973 50.682ZM154.616 57V44.31H156.398L156.803 46.848C157.109 46.038 157.613 45.381 158.315 44.877C159.017 44.373 159.827 44.121 160.745 44.121C161.213 44.121 161.6 44.157 161.906 44.229C162.212 44.301 162.491 44.391 162.743 44.499L162.284 46.578C162.068 46.47 161.825 46.38 161.555 46.308C161.303 46.236 160.997 46.2 160.637 46.2C160.115 46.2 159.629 46.29 159.179 46.47C158.747 46.65 158.36 46.92 158.018 47.28C157.694 47.64 157.433 48.09 157.235 48.63C157.055 49.152 156.965 49.755 156.965 50.439V57H154.616ZM165.805 45.444C166.237 45.228 166.642 45.039 167.02 44.877C167.398 44.697 167.776 44.553 168.154 44.445C168.532 44.337 168.919 44.256 169.315 44.202C169.711 44.148 170.143 44.121 170.611 44.121C171.313 44.121 171.952 44.202 172.528 44.364C173.122 44.508 173.626 44.76 174.04 45.12C174.472 45.48 174.805 45.957 175.039 46.551C175.273 47.127 175.39 47.856 175.39 48.738V57H173.419L173.122 55.596H173.068C172.51 56.19 171.898 56.613 171.232 56.865C170.566 57.117 169.828 57.243 169.018 57.243C168.406 57.243 167.839 57.162 167.317 57C166.813 56.82 166.372 56.577 165.994 56.271C165.616 55.947 165.319 55.56 165.103 55.11C164.905 54.66 164.806 54.156 164.806 53.598C164.806 52.266 165.328 51.258 166.372 50.574C167.434 49.872 168.829 49.521 170.557 49.521H172.987V48.441C172.987 47.523 172.753 46.902 172.285 46.578C171.817 46.236 171.187 46.065 170.395 46.065C169.927 46.065 169.387 46.146 168.775 46.308C168.181 46.452 167.497 46.74 166.723 47.172L165.805 45.444ZM173.014 51.141L171.016 51.195C169.666 51.231 168.703 51.474 168.127 51.924C167.569 52.356 167.29 52.887 167.29 53.517C167.29 53.895 167.353 54.219 167.479 54.489C167.605 54.741 167.767 54.939 167.965 55.083C168.181 55.227 168.424 55.335 168.694 55.407C168.982 55.461 169.279 55.488 169.585 55.488C170.179 55.488 170.782 55.353 171.394 55.083C172.006 54.795 172.546 54.345 173.014 53.733V51.141ZM182.606 57H180.23V44.31H182.093L182.444 46.065C183.074 45.435 183.731 44.958 184.415 44.634C185.117 44.292 185.918 44.121 186.818 44.121C188.114 44.121 189.131 44.49 189.869 45.228C190.607 45.948 190.976 46.956 190.976 48.252V57H188.6V48.603C188.6 47.829 188.393 47.217 187.979 46.767C187.583 46.299 186.971 46.065 186.143 46.065C184.883 46.065 183.704 46.632 182.606 47.766V57ZM204.427 37.83H206.803V57H204.805L204.508 55.596H204.427C203.869 56.172 203.302 56.595 202.726 56.865C202.168 57.117 201.457 57.243 200.593 57.243C199.909 57.243 199.243 57.108 198.595 56.838C197.965 56.568 197.398 56.163 196.894 55.623C196.39 55.083 195.985 54.408 195.679 53.598C195.373 52.77 195.22 51.798 195.22 50.682C195.22 49.692 195.346 48.792 195.598 47.982C195.868 47.172 196.246 46.479 196.732 45.903C197.218 45.327 197.812 44.886 198.514 44.58C199.216 44.274 200.017 44.121 200.917 44.121C201.583 44.121 202.213 44.229 202.807 44.445C203.419 44.643 203.959 44.949 204.427 45.363V37.83ZM204.427 47.361C203.581 46.407 202.582 45.93 201.43 45.93C200.944 45.93 200.467 46.02 199.999 46.2C199.549 46.362 199.144 46.632 198.784 47.01C198.442 47.388 198.163 47.874 197.947 48.468C197.731 49.062 197.623 49.773 197.623 50.601C197.623 51.465 197.722 52.203 197.92 52.815C198.118 53.409 198.379 53.904 198.703 54.3C199.045 54.678 199.423 54.957 199.837 55.137C200.269 55.317 200.701 55.407 201.133 55.407C202.483 55.407 203.581 54.822 204.427 53.652V47.361Z" fill="#575757"/>
<path d="M54.2496 59.5751H50.2871V36.7251H54.2496C54.8019 36.7251 55.2496 37.1728 55.2496 37.7251V58.5751C55.2496 59.1274 54.8019 59.5751 54.2496 59.5751Z" fill="#AB47BC" stroke="#AB47BC"/>
<path d="M46.3004 63.55H42.3379V32.75H46.3004C46.8527 32.75 47.3004 33.1977 47.3004 33.75V62.55C47.3004 63.1023 46.8527 63.55 46.3004 63.55Z" fill="#9C27B0" stroke="#9C27B0"/>
<rect x="16.5" y="24.5" width="23" height="47" rx="1.5" fill="#8E24AA" stroke="#8E24AA"/>
</svg>
